<?xml version="1.0" standalone="no"?>
<!DOCTYPE svg PUBLIC "-//W3C//DTD SVG 20010904//EN"
 "http://www.w3.org/TR/2001/REC-SVG-20010904/DTD/svg10.dtd">
<svg version="1.0" xmlns="http://www.w3.org/2000/svg"
 width="1300.000000pt" height="1300.000000pt" viewBox="0 0 1300.000000 1300.000000"
 preserveAspectRatio="xMidYMid meet">
<metadata>
Created by potrace 1.14, written by Peter Selinger 2001-2017
</metadata>
<g transform="translate(0.000000,1300.000000) scale(0.100000,-0.100000)"
fill="#000000" stroke="none">
<path d="M6268 12995 c-2 -1 -61 -5 -133 -9 -145 -7 -216 -12 -290 -21 -27 -4
-75 -9 -105 -11 -30 -3 -66 -7 -80 -10 -14 -3 -45 -7 -70 -10 -99 -13 -343
-57 -470 -85 -74 -17 -143 -32 -152 -34 -43 -9 -260 -68 -323 -87 -838 -254
-1597 -659 -2270 -1212 -60 -49 -126 -104 -145 -121 -19 -18 -62 -56 -95 -86
-90 -81 -371 -363 -457 -459 -63 -70 -163 -188 -267 -315 -26 -32 -175 -230
-191 -255 -8 -13 -24 -35 -36 -49 -11 -14 -45 -64 -76 -111 -30 -47 -74 -113
-96 -148 -23 -35 -42 -66 -42 -69 0 -3 -8 -17 -19 -31 -19 -27 -95 -159 -164
-283 -65 -119 -149 -290 -234 -479 -38 -85 -140 -342 -174 -438 -61 -175 -158
-500 -184 -617 -3 -11 -18 -79 -34 -151 -28 -126 -63 -312 -76 -404 -7 -48
-10 -71 -19 -135 -7 -42 -10 -69 -21 -175 -4 -36 -8 -76 -10 -90 -27 -192 -27
-1027 0 -1190 2 -14 7 -52 10 -85 12 -126 23 -213 35 -285 5 -30 12 -74 15
-97 5 -34 42 -229 71 -368 52 -255 201 -732 311 -995 24 -58 46 -109 47 -115
8 -28 70 -163 141 -310 382 -782 925 -1488 1581 -2056 60 -52 132 -112 159
-134 28 -22 52 -42 55 -45 28 -31 357 -268 500 -361 384 -251 872 -497 1265
-639 50 -18 99 -36 110 -41 51 -21 333 -110 425 -134 217 -58 309 -79 465
-111 82 -16 124 -24 150 -29 17 -3 41 -7 55 -9 14 -3 61 -10 105 -16 44 -6 91
-13 105 -15 26 -4 105 -13 175 -21 22 -2 58 -6 80 -8 251 -29 944 -29 1205 -1
19 2 67 7 105 11 39 3 77 7 85 9 8 1 42 5 75 9 82 11 402 65 445 76 19 5 49
11 65 13 17 3 79 17 139 32 59 15 116 28 125 30 9 2 79 22 156 44 383 110 763
258 1110 433 159 81 243 125 265 138 8 5 73 44 144 86 129 76 390 244 456 294
19 15 82 62 140 105 92 69 254 198 330 264 119 103 178 159 335 316 249 248
351 362 534 595 45 58 89 113 97 122 98 123 327 475 469 723 88 153 266 524
355 740 36 88 54 136 81 212 16 49 36 106 44 128 52 149 149 482 160 550 2 11
12 58 23 105 24 98 75 366 88 455 6 44 13 94 19 145 3 25 7 56 10 69 2 14 7
59 11 100 3 42 8 96 10 121 25 266 25 858 0 1090 -2 19 -7 71 -11 115 -4 44
-8 82 -10 85 -1 3 -6 41 -10 85 -4 44 -8 82 -10 86 -2 3 -6 25 -9 50 -3 24 -8
53 -10 64 -2 11 -7 42 -10 68 -4 27 -10 59 -12 70 -3 12 -7 31 -9 42 -13 77
-30 154 -52 245 -13 58 -26 113 -28 122 -13 63 -80 295 -88 306 -5 6 -7 12 -4
12 8 0 -132 412 -144 425 -5 5 -9 15 -9 22 0 43 -246 573 -357 772 -29 51 -53
95 -53 97 0 8 -174 288 -252 404 -80 118 -281 396 -298 410 -3 3 -35 41 -70
85 -35 44 -67 82 -70 85 -3 3 -20 23 -39 45 -154 181 -386 416 -617 625 -228
207 -640 511 -919 679 -38 23 -77 47 -85 52 -107 65 -594 319 -613 319 -3 0
-34 13 -69 29 -169 78 -482 194 -760 280 -107 33 -329 90 -493 126 -11 2 -30
6 -41 9 -12 2 -38 7 -59 10 -20 4 -40 8 -44 10 -3 2 -26 7 -51 10 -43 6 -68
10 -127 21 -16 3 -48 8 -73 11 -25 3 -52 7 -60 9 -8 2 -62 9 -120 16 -113 12
-122 13 -250 23 -47 4 -110 10 -140 13 -53 5 -627 12 -632 8z"/>
</g>
</svg>
